<svg width="100" height="100" viewBox="0 0 100 100" fill="none" xmlns="http://www.w3.org/2000/svg">
<circle cx="50" cy="50" r="50" fill="#6644FF"/>
<mask id="mask0_22_87" style="mask-type:alpha" maskUnits="userSpaceOnUse" x="0" y="0" width="100" height="100">
<circle cx="50" cy="50" r="50" fill="#6644FF"/>
</mask>
<g mask="url(#mask0_22_87)">
<g opacity="0.6">
<rect x="84.8417" y="12.1237" width="10.2564" height="74.9406" transform="rotate(35 84.8417 12.1237)" fill="url(#paint0_linear_22_87)"/>
<rect x="71.1892" y="2.56409" width="12.8205" height="74.9406" transform="rotate(35 71.1892 2.56409)" fill="url(#paint1_linear_22_87)"/>
</g>
</g>
<path d="M78.473 51.7511L67.3177 66.3852C66.6416 67.0231 65.8247 67.3421 64.8669 67.3421C63.9091 67.3421 63.0922 67.0138 62.4161 66.3571C61.74 65.7004 61.402 64.8937 61.402 63.9368C61.402 62.98 61.74 62.1638 62.4161 61.4884L71.7122 49.3308L62.4161 37.1732C61.74 36.4978 61.402 35.6911 61.402 34.753C61.402 33.8149 61.74 33.0081 62.4161 32.3327C63.0922 31.6573 63.9091 31.3196 64.8669 31.3196C65.8247 31.3196 66.6416 31.6573 67.3177 32.3327L78.473 46.9106C79.1491 47.586 79.4872 48.3927 79.4872 49.3308C79.4872 50.2689 79.1491 51.0757 78.473 51.7511ZM50.641 74.6029C50.6035 74.7154 50.5471 74.9312 50.472 75.2502C50.3969 75.5691 50.3405 75.7849 50.303 75.8974L50.1058 76.4884L49.8241 77.0794L49.4015 77.5297L48.81 77.9237L48.0494 78.1207L47.0352 78.2051C46.1338 78.2051 45.2699 77.7361 44.4436 76.798C43.6173 75.8599 43.3168 74.9593 43.5422 74.0963L50.641 24.1151C51.2795 21.7136 53.0824 20.5128 56.0497 20.5128C56.876 20.5128 57.43 20.9537 57.7117 21.8355C57.9934 22.7173 58.0028 23.646 57.7399 24.6216L50.641 74.6029ZM38.8659 66.3571C38.1898 67.0138 37.3729 67.3421 36.4151 67.3421C35.4573 67.3421 34.6404 67.0231 33.9643 66.3852L22.809 51.7511C22.1329 51.0757 21.7949 50.2689 21.7949 49.3308C21.7949 48.3927 22.1329 47.586 22.809 46.9106L33.9643 32.3327C34.6404 31.6573 35.4573 31.3196 36.4151 31.3196C37.3729 31.3196 38.1898 31.6573 38.8659 32.3327C39.542 33.0081 39.88 33.8149 39.88 34.753C39.88 35.6911 39.542 36.4978 38.8659 37.1732L29.5698 49.3308L38.8659 61.4884C39.542 62.1638 39.88 62.98 39.88 63.9368C39.88 64.8937 39.542 65.7004 38.8659 66.3571Z" fill="white"/>
<defs>
<linearGradient id="paint0_linear_22_87" x1="89.9699" y1="12.1237" x2="89.9699" y2="87.0642" gradientUnits="userSpaceOnUse">
<stop stop-color="white" stop-opacity="0.36"/>
<stop offset="1" stop-color="#DADADA" stop-opacity="0"/>
</linearGradient>
<linearGradient id="paint1_linear_22_87" x1="77.5995" y1="2.56409" x2="77.5995" y2="77.5047" gradientUnits="userSpaceOnUse">
<stop stop-color="white" stop-opacity="0.36"/>
<stop offset="1" stop-color="#DADADA" stop-opacity="0"/>
</linearGradient>
</defs>
</svg>
