<svg width="182" height="60" viewBox="0 0 182 60" fill="none" xmlns="http://www.w3.org/2000/svg">
<path d="M0 30C0 20.6812 0 16.0218 1.47516 12.3463C3.44204 7.44577 7.21468 3.55229 11.9631 1.52241C15.5245 0 20.0393 0 29.0689 0C38.0985 0 42.6132 0 46.1747 1.52241C50.9231 3.55229 54.6957 7.44577 56.6626 12.3463C58.1378 16.0218 58.1378 20.6812 58.1378 30C58.1378 39.3188 58.1378 43.9782 56.6626 47.6537C54.6957 52.5542 50.9231 56.4477 46.1747 58.4776C42.6132 60 38.0985 60 29.0689 60C20.0393 60 15.5245 60 11.9631 58.4776C7.21468 56.4477 3.44204 52.5542 1.47516 47.6537C0 43.9782 0 39.3188 0 30Z" fill="url(#paint0_linear_180_33)"/>
<path d="M43.1492 31.7861L34.5659 16.2919L34.5938 16.2454C32.9364 13.2489 28.7898 13.2489 27.1323 16.2454L14.0007 39.9434C13.705 40.4845 13.5655 41.0605 13.5655 41.6249C13.5655 43.3878 14.916 44.9995 16.8023 44.9995C17.9576 44.9995 19.0235 44.3537 19.6039 43.318L29.9786 24.5772C30.3581 23.8906 31.3068 23.8906 31.6863 24.5772L34.9398 30.4479C35.2691 31.0414 34.8561 31.7861 34.1976 31.7861H30.5422C28.7564 31.7861 27.3109 33.293 27.3109 35.1549V35.1607C27.3109 37.0226 28.7564 38.5295 30.5422 38.5295H39.4101H41.4136C43.8412 38.5295 45.3592 35.7891 44.1482 33.5956L43.1492 31.7861Z" fill="white"/>
<path d="M91.0011 35.7758H83.4587L82.2107 39.4998H78.2224L85.0323 19.9278H89.4547L96.2645 39.4998H92.2492L91.0011 35.7758ZM89.9701 32.6398L87.2299 24.4638L84.4897 32.6398H89.9701ZM101.794 26.2558C102.283 25.5091 102.952 24.9025 103.802 24.4358C104.67 23.9691 105.656 23.7358 106.759 23.7358C108.043 23.7358 109.201 24.0625 110.232 24.7158C111.282 25.3691 112.104 26.3025 112.701 27.5158C113.316 28.7105 113.624 30.1011 113.624 31.6878C113.624 33.2745 113.316 34.6838 112.701 35.9158C112.104 37.1291 111.282 38.0718 110.232 38.7438C109.201 39.4158 108.043 39.7518 106.759 39.7518C105.638 39.7518 104.652 39.5278 103.802 39.0798C102.97 38.6131 102.301 38.0158 101.794 37.2878V39.4998H97.9961V18.7798H101.794V26.2558ZM109.744 31.6878C109.744 30.7545 109.554 29.9518 109.174 29.2798C108.813 28.5891 108.324 28.0665 107.709 27.7118C107.112 27.3571 106.461 27.1798 105.756 27.1798C105.069 27.1798 104.417 27.3665 103.802 27.7398C103.205 28.0945 102.717 28.6171 102.337 29.3078C101.976 29.9985 101.794 30.8105 101.794 31.7438C101.794 32.6771 101.976 33.4891 102.337 34.1798C102.717 34.8705 103.205 35.4025 103.802 35.7758C104.417 36.1305 105.069 36.3078 105.756 36.3078C106.461 36.3078 107.112 36.1211 107.709 35.7478C108.324 35.3745 108.813 34.8425 109.174 34.1518C109.554 33.4611 109.744 32.6398 109.744 31.6878ZM121.322 39.7518C120.091 39.7518 118.989 39.5278 118.012 39.0798C117.035 38.6131 116.257 37.9878 115.679 37.2038C115.118 36.4198 114.81 35.5518 114.756 34.5998H118.582C118.653 35.1971 118.934 35.6918 119.423 36.0838C119.929 36.4758 120.553 36.6718 121.295 36.6718C122.018 36.6718 122.579 36.5225 122.977 36.2238C123.393 35.9251 123.601 35.5425 123.601 35.0758C123.601 34.5718 123.347 34.1985 122.841 33.9558C122.353 33.6945 121.566 33.4145 120.481 33.1158C119.359 32.8358 118.436 32.5465 117.714 32.2478C117.008 31.9491 116.393 31.4918 115.869 30.8758C115.362 30.2598 115.109 29.4291 115.109 28.3838C115.109 27.5251 115.343 26.7411 115.814 26.0318C116.303 25.3225 116.99 24.7625 117.876 24.3518C118.78 23.9411 119.838 23.7358 121.051 23.7358C122.841 23.7358 124.27 24.2025 125.337 25.1358C126.404 26.0505 126.992 27.2918 127.101 28.8598H123.465C123.411 28.2438 123.157 27.7585 122.706 27.4038C122.271 27.0305 121.683 26.8438 120.942 26.8438C120.254 26.8438 119.721 26.9745 119.341 27.2358C118.979 27.4971 118.799 27.8611 118.799 28.3278C118.799 28.8505 119.052 29.2518 119.558 29.5318C120.064 29.7931 120.851 30.0638 121.919 30.3438C123.004 30.6238 123.899 30.9131 124.605 31.2118C125.31 31.5105 125.916 31.9771 126.423 32.6118C126.947 33.2278 127.218 34.0491 127.236 35.0758C127.236 35.9718 126.992 36.7745 126.504 37.4838C126.033 38.1931 125.346 38.7531 124.442 39.1638C123.555 39.5558 122.516 39.7518 121.322 39.7518ZM133.962 27.2078V34.7118C133.962 35.2345 134.08 35.6171 134.315 35.8598C134.569 36.0838 134.984 36.1958 135.563 36.1958H137.326V39.4998H134.939C131.737 39.4998 130.137 37.8945 130.137 34.6838V27.2078H128.346V23.9878H130.137V20.1518H133.962V23.9878H137.326V27.2078H133.962ZM143.043 26.3958C143.532 25.5745 144.164 24.9305 144.942 24.4638C145.738 23.9971 146.642 23.7638 147.655 23.7638V27.8798H146.652C145.458 27.8798 144.553 28.1691 143.938 28.7478C143.342 29.3265 143.043 30.3345 143.043 31.7718V39.4998H139.245V23.9878H143.043V26.3958ZM148.423 31.6878C148.423 30.1198 148.721 28.7291 149.318 27.5158C149.933 26.3025 150.756 25.3691 151.787 24.7158C152.836 24.0625 154.003 23.7358 155.287 23.7358C156.408 23.7358 157.385 23.9691 158.217 24.4358C159.067 24.9025 159.745 25.4905 160.252 26.1998V23.9878H164.077V39.4998H160.252V37.2318C159.764 37.9598 159.085 38.5665 158.217 39.0518C157.367 39.5185 156.381 39.7518 155.26 39.7518C153.993 39.7518 152.836 39.4158 151.787 38.7438C150.756 38.0718 149.933 37.1291 149.318 35.9158C148.721 34.6838 148.423 33.2745 148.423 31.6878ZM160.252 31.7438C160.252 30.7918 160.071 29.9798 159.709 29.3078C159.348 28.6171 158.86 28.0945 158.244 27.7398C157.629 27.3665 156.969 27.1798 156.264 27.1798C155.558 27.1798 154.907 27.3571 154.31 27.7118C153.713 28.0665 153.225 28.5891 152.845 29.2798C152.484 29.9518 152.303 30.7545 152.303 31.6878C152.303 32.6211 152.484 33.4425 152.845 34.1518C153.225 34.8425 153.713 35.3745 154.31 35.7478C154.926 36.1211 155.577 36.3078 156.264 36.3078C156.969 36.3078 157.629 36.1305 158.244 35.7758C158.86 35.4025 159.348 34.8798 159.709 34.2078C160.071 33.5171 160.252 32.6958 160.252 31.7438ZM175.873 39.4998L170.772 32.8918V39.4998H166.974V18.7798H170.772V30.5678L175.818 23.9878H180.756L174.136 31.7718L180.81 39.4998H175.873Z" fill="#292930"/>
<defs>
<linearGradient id="paint0_linear_180_33" x1="8.23619" y1="4" x2="51.445" y2="53.657" gradientUnits="userSpaceOnUse">
<stop stop-color="#6964EE"/>
<stop offset="0.673777" stop-color="#9B92FF"/>
</linearGradient>
</defs>
</svg>
